# xmcd
#
# Track frame offsets:
#	150
#	8801
#	19395
#	37292
#	55362
#	68926
#	82910
#	100146
#	115694
#	125479
#	147051
#	165568
#	180215
#
# Disc length: 2609 seconds
#
# Revision: 1
# Processed by: cddbd v1.5.1PL2 Copyright (c) Steve Scherf et al.
# Submitted via: audiograbber 1.83.01
#
DISCID=a60a2f0d
DTITLE=Frankie Laine - Life Is Beautiful
DYEAR=1900
DGENRE=
TTITLE0=Life Is Beautiful
TTITLE1=Send In The Clowns
TTITLE2=Evergreen
TTITLE3=Nobody But You
TTITLE4=Forgetting Someone
TTITLE5=The Only Thing That Matters
TTITLE6=If I Never Sing Another Song
TTITLE7=Hey Hey Jesus
TTITLE8=I Don't Like Singing Anymore
TTITLE9=Sunday Morning Coming Down
TTITLE10=It's Gonna Happen
TTITLE11=Nan
TTITLE12=End Of Session Blues
EXTD=
EXTT0=
EXTT1=
EXTT2=
EXTT3=
EXTT4=
EXTT5=
EXTT6=
EXTT7=
EXTT8=
EXTT9=
EXTT10=
EXTT11=
EXTT12=
PLAYORDER=
